<svg id="Capa_1" data-name="Capa 1" xmlns="http://www.w3.org/2000/svg" viewBox="0 0 220 148"><polygon points="35.97 114.92 40.49 114.92 37.05 134.4 43.37 134.4 47.71 109.78 36.87 109.78 35.97 114.92"/><path d="M64.26,126.24c3.68-3.45,5.57-5.76,5.57-9.39s-2.64-7.49-8.73-7.49c-4.24,0-8.3,1.93-10,7.45l5.75,1.46c.9-2.17,2-3.35,4-3.35a2.42,2.42,0,0,1,2.65,2.59c0,2-1.28,3.4-4.63,6.51l-10.42,9.81v.56H68l.89-5.18H62.8c-.94,0-2.69.23-2.69.23a12.71,12.71,0,0,0,2.46-1.6Z"/><path d="M76.19,126.85A3.92,3.92,0,1,0,80,130.76,3.83,3.83,0,0,0,76.19,126.85Z"/><path d="M94.55,113.2l.6-3.42H84.31l-.9,5.14h4.53L84.5,134.39h6.32l1.05-6a12.67,12.67,0,0,1-1.34-5.74A12.92,12.92,0,0,1,94.55,113.2Z"/><path d="M137.13,103c1.13.19,2.75-1.2,3.38-3.67a3.83,3.83,0,0,1-2.31,1.82c-.71,0-.61.14-.49-1.17A2.08,2.08,0,0,1,138.78,98a4.74,4.74,0,0,1,1.92.34,9,9,0,0,0,.09-1.3c0-.23-4.06-.23-4.77.08-.19.09-24.36-7.74-24.54-7.54s23.41,8.88,23.28,9.08-.17.26-.18.29h0l-40-13.29s39.11,15.58,39.9,16.22A4.35,4.35,0,0,0,137.13,103Z" style="fill:#47ff82"/><path d="M129.57,79.33c-.56,0-.56.88-1,1.28S116.83,84,116.83,84l2,.56c1.33-.24,7.87-1.84,9.86-2.19.05,0,.08.06,0,.08-1.9.87-4,1.85-6.17,2.59l16.47-3.45-13.45,5.31,2.45,1,10.66-3.34c2.63-1.44,2.55-3.43,1.91-4.46a3.65,3.65,0,0,0-3.18-1.51c-1.28,0-5.89.63-6.45.71A8.54,8.54,0,0,1,129.57,79.33Z" style="fill:#47ff82"/><path d="M91,68.84a4,4,0,0,0,.39-.23A3.36,3.36,0,0,0,92,63.5c0-.06,3.21.73,2.9,5.08,1.65-2.2,2.47-6.25-.17-8.83,0,0,8.28-.32,8,9.68-.12,4.31,3.63-1.18,4.49-8.48.94-8.1-1.6-15.09,6.17-22.22,0,0-4.1,10.91,4,17.5,3.1,2.53,5.16,2.66,7,6.5a13.59,13.59,0,0,0-1-6.57c0-.1,5.21,2.38,5.21,7.74a9.64,9.64,0,0,1-4.94,8.93c12-4.33,14-12.24,12.82-19.81-.13-.84-.3-1.68-.5-2.5a24.47,24.47,0,0,0-3-7,25.81,25.81,0,0,0-1.59-5.65,13.37,13.37,0,0,1-.78-2.56c-.59,5.14-10.07,11.08-9.48-3.6q0-.93,0-1.8c0-.59-.07-1.17-.14-1.74-1.09-3.88-1.48-8.5-4.73-11.35-.56-.74-1.14-1.44-1.72-2.09a32.23,32.23,0,0,0-7-6c9.48,9.32-8,37.1-6.81,28.09s-4.45-11.19-4.45-11.19a8.19,8.19,0,0,1-.55,5.64,10.9,10.9,0,0,1-.94,1.61c-2.17,3.69-5.63,6.76-8.54,9.94a18.93,18.93,0,0,0-1.08,1.71,17,17,0,0,0-2.26,8,17.22,17.22,0,0,0,0,2.78A18.33,18.33,0,0,0,91,68.84Z" style="fill:#47ff82"/><path d="M86.31,103.06l4.51-1.52.58-.2,2.93-1,0,0L105,96.77l-3-1.41L87.3,101c0,.08-.34.82-.36.88-.24.66-.24,1.13-1.25,1a5.18,5.18,0,0,1-1.41-.66A13,13,0,0,1,83,100c-.32-.92-.12-.52,1.24-.68s1.47,1.48,1.47,1.48A3.44,3.44,0,0,0,85,98.92c-.63-.76-.87,0-1.63-.16a1.74,1.74,0,0,0-1.79.43c-.3.34-.1.9.09,1.33-.63-.44-1.1-.79-1.18-.85.7,1.37,1.9,3.09,2.48,3.3A11.91,11.91,0,0,0,86.31,103.06Z" style="fill:#47ff82"/><path d="M133.63,102.82a12.63,12.63,0,0,0,5.13.71c2.15-.36,3-6.56,2.51-6.92s-5.37-2.15-5.37-2.15l-6.45-2.09,7.48.62.52-.2s-.24-1.79-1.67-2-6,1.07-8.6.24-17.55-6.45-19.82-6.81-3-1.08-4.66-1.67-20.06-5.79-20.06-5.79.42-1.08-1.73-1c-.15,0-1.34,1.09-1.49,1.14,5.32,2.4,25.07,10.38,25.07,10.38L78.84,79c-.94,1.11-1.14,1.92-.73,2.19C78.82,81.68,133.63,102.82,133.63,102.82Zm1-3.83s.06-.1.18-.29-23.44-8.9-23.28-9.08,24.35,7.63,24.54,7.54c.71-.31,4.77-.31,4.77-.08a9,9,0,0,1-.09,1.3,4.74,4.74,0,0,0-1.92-.34,2.08,2.08,0,0,0-1.07,1.91c-.12,1.31-.22,1.17.49,1.17a3.83,3.83,0,0,0,2.31-1.82c-.63,2.47-2.25,3.86-3.38,3.67a4.35,4.35,0,0,1-2.61-1c-.79-.64-39.9-16.22-39.9-16.22Z" style="fill:#47ff82"/><path d="M82.41,96.49a7.62,7.62,0,0,1,3.16,1c1.41-.27,10.31-2.86,11.81-3.17l.27-.07c.1,0-2.71,1-3,1.1-1.29.34-5.51,2.35-7.5,3,.41.28.12.17.31.38s.06.1.09.29l13.64-4-6.9-3.24s-6.37,2-7.65,2-2.86,1.35-4,1.67-2.62,1.83-2.7,2.71a3.77,3.77,0,0,0,.52,1.51C80.6,99.21,80.29,96.61,82.41,96.49Z" style="fill:#47ff82"/><path d="M139.2,105.09l-.25,0h0a4.66,4.66,0,0,1-2.71-1.1c-.78-.56-26.4-10.83-39.84-16.19l.16-.43,38.8,12.9c-2.05-.82-6.52-2.52-10.59-4.06-11.59-4.4-11.6-4.44-11.65-4.64l0-.12.08-.1c.17-.2.19-.23,15.12,4.49,4.43,1.39,9,2.84,9.56,3a14.82,14.82,0,0,1,4.91-.07l.11.07,0,.16c0,.3,0,.61,0,.91l.21-.37-.45,1.73C142,103.69,140.4,105.09,139.2,105.09Zm-35.26-14.8c11.54,4.62,32,12.83,32.59,13.31a4.15,4.15,0,0,0,2.5,1h0c.84.13,2-.73,2.68-2.27a3.09,3.09,0,0,1-1.64.88h-.19a.6.6,0,0,1-.52-.13c-.14-.15-.12-.35-.07-.83,0-.13,0-.29.05-.47a2.33,2.33,0,0,1,1.2-2.09l.11,0a6.06,6.06,0,0,1,1.72.22,7,7,0,0,0,0-.8,16.51,16.51,0,0,0-4.45.15c-.14.06-.16.07-9.82-3-3.44-1.09-7.62-2.4-10.65-3.34,2.15.83,4.88,1.86,7.44,2.83,11.83,4.49,11.84,4.54,11.91,4.73l0,.11-.06.1a1.82,1.82,0,0,0-.17.28l-.2-.11-.08.22Zm35.78,12.47h.35a3.65,3.65,0,0,0,2.1-1.7l.32-.56-.07-.06a4,4,0,0,0-1.72-.29c-.24.12-.79.48-.9,1.7,0,.18,0,.33,0,.46S139.72,102.66,139.72,102.76Z"/><path d="M129.91,90l-3.06-1.25,11.44-4.51-13.78,2.88-.13-.45c1.59-.54,3.17-1.22,4.65-1.89-1.24.27-2.83.64-4.29,1-1.82.43-3.38.79-4,.9h-.05l-2.9-.81.83-.22c4.25-1.15,11.18-3.08,11.61-3.38a1.55,1.55,0,0,0,.36-.57c.16-.34.35-.75.82-.75a4.35,4.35,0,0,1,.53,0,4.29,4.29,0,0,0,.87,0s5.11-.72,6.48-.72a3.87,3.87,0,0,1,3.39,1.62,2.86,2.86,0,0,1,.3,2.22,4.27,4.27,0,0,1-2.3,2.57Zm-1.81-1.25,1.83.76,10.59-3.32a3.88,3.88,0,0,0,2-2.26,2.36,2.36,0,0,0-.25-1.85,3.41,3.41,0,0,0-3-1.41c-1.19,0-5.43.58-6.41.72a4.51,4.51,0,0,1-1,0l-.51,0c-.15,0-.24.15-.39.48a2,2,0,0,1-.49.74c-.45.37-8,2.45-11,3.25l1.15.32c.63-.12,2.22-.49,3.9-.88,2.25-.52,4.8-1.11,5.91-1.31a.29.29,0,0,1,.32.19l.07.2-.21.13-.25.12c-1,.47-2.1,1-3.23,1.44l13.64-2.85.13.44Z"/><path d="M124.31,75.38l1.1-.87.42-.3c1.32-.88,4.43-2.94,4.43-8.45,0-4-3.15-6.47-4.5-7.25a14.54,14.54,0,0,1,.79,6.12l-.12.72-.32-.65a9.94,9.94,0,0,0-4.34-4.56,28.37,28.37,0,0,1-2.63-1.86c-6.78-5.53-5.09-14.15-4.32-16.9-5.1,5.06-5.14,10.13-5.19,15.5a53.13,53.13,0,0,1-.27,6c-.62,5.32-2.88,10.21-4.21,10.21h0c-.49,0-.73-.63-.7-1.76.09-3.21-.71-5.67-2.36-7.3a7.91,7.91,0,0,0-4.86-2.12c2.32,2.74,1.33,6.67-.2,8.71l-.47.63,0-.79c.21-2.9-1.22-4.12-2.07-4.58A3.82,3.82,0,0,1,95,68.25a3.66,3.66,0,0,1-1.61,2.42l-.33.2-.2.11-.12-.08a18.72,18.72,0,0,1-8.2-13.71,17.7,17.7,0,0,1,0-2.82,17.23,17.23,0,0,1,2.29-8.09,19.35,19.35,0,0,1,1.09-1.73c.77-.84,1.57-1.67,2.35-2.47a42.68,42.68,0,0,0,6.19-7.45A11.12,11.12,0,0,0,97.36,33a7.91,7.91,0,0,0,.54-5.49l-.1-.43.41.16A7,7,0,0,1,101,29.57c1.17,1.56,2.44,4.41,1.82,9.15-.13,1,0,1.44.15,1.5.33.12,1.4-.68,3.09-3.37a43.24,43.24,0,0,0,5.38-13.28c.84-4,1.14-9.53-2.2-12.81l-1.32-1.3,1.6.93a33,33,0,0,1,7.09,6c.61.68,1.2,1.4,1.73,2.11,2.6,2.26,3.38,5.65,4.14,8.92.21.87.4,1.69.62,2.5.08.61.13,1.21.16,1.79s0,1.2,0,1.82c-.22,5.54,1,8.82,3.44,9h.21c2.3,0,5-2.76,5.36-5.45l.2-1.76.26,1.75a13.74,13.74,0,0,0,.77,2.51,25.64,25.64,0,0,1,1.59,5.64,25,25,0,0,1,3,7.05c.21.87.38,1.72.5,2.54,1.52,9.82-2.72,16.38-13,20.06Zm.9-17.63.2.07s5.31,2.43,5.31,7.94a9.71,9.71,0,0,1-3.53,8c8.76-3.69,12.34-9.88,10.95-18.88-.12-.81-.29-1.64-.49-2.48a24.41,24.41,0,0,0-3-7l0-.08a25.34,25.34,0,0,0-1.57-5.6c-.24-.63-.42-1.16-.56-1.6-.8,2.56-3.35,4.84-5.6,4.84l-.25,0c-1.58-.12-4.19-1.52-3.87-9.49a17.61,17.61,0,0,0,0-1.78c0-.57-.07-1.15-.14-1.72-.22-.78-.43-1.65-.62-2.49-.74-3.2-1.51-6.51-4-8.71-.56-.74-1.13-1.44-1.74-2.12a34.11,34.11,0,0,0-5.65-5c4.5,6.51,0,18.78-4.16,25.43-.93,1.48-2.63,3.91-3.64,3.55-.46-.16-.61-.82-.45-2,.6-4.55-.6-7.29-1.72-8.78a7,7,0,0,0-2.16-1.95,8.4,8.4,0,0,1-.68,5.32,11.29,11.29,0,0,1-1,1.64,41.9,41.9,0,0,1-6.25,7.52c-.77.8-1.57,1.63-2.32,2.44a19.66,19.66,0,0,0-1,1.67A16.72,16.72,0,0,0,85,54.4a16.83,16.83,0,0,0,0,2.75,18.23,18.23,0,0,0,7.87,13.29l.25-.15a3.22,3.22,0,0,0,1.41-2.11,3.55,3.55,0,0,0-.79-2.68l-.1-.13.1-.14c.11-.16.28-.11.53,0a4.58,4.58,0,0,1,2.81,4.43c1.23-2.13,1.76-5.57-.59-7.86l-.39-.37.54,0a8.41,8.41,0,0,1,5.76,2.28c1.74,1.73,2.59,4.3,2.5,7.64,0,1,.16,1.27.26,1.28h0c.76,0,3.08-4.17,3.74-9.8a57.13,57.13,0,0,0,.27-5.91c0-5.68.09-11,6-16.45l.72-.66-.35.91c0,.11-3.94,10.84,3.91,17.25a30.1,30.1,0,0,0,2.6,1.83,10.34,10.34,0,0,1,4.12,4,13.5,13.5,0,0,0-1.07-5.64L125,58Z"/><path d="M86.46,105.24a5.64,5.64,0,0,1-1.67-.18c-.73-.27-2-2.2-2.61-3.42l-.45-.88.79.59.59.42a1,1,0,0,1,.19-.87,2,2,0,0,1,2-.51.84.84,0,0,0,.59-.07.85.85,0,0,1,1.15.31,3.71,3.71,0,0,1,.74,2l-.47,0a1.75,1.75,0,0,0-.49-1.08.92.92,0,0,0-.72-.18,7.22,7.22,0,0,1-1,0H85c0,.1.08.25.11.33a11.12,11.12,0,0,0,1.22,2.13,4.22,4.22,0,0,0,1.27.6c.7.08.75-.09.92-.62l.09-.25.32-.78.08-.19.09,0L103.86,97l3.6,1.7L88.2,105.16C88.14,105.16,87.32,105.24,86.46,105.24Zm-3.36-2.9A7,7,0,0,0,85,104.62a6.56,6.56,0,0,0,2,.15c-.24-.12-.53-.28-.89-.49l-.07-.06a12.3,12.3,0,0,1-1.3-2.29c-.13-.37-.21-.6-.08-.78s.3-.18.61-.16a8.11,8.11,0,0,0,.89,0,1.41,1.41,0,0,1,.72.07l-.07-.09c-.27-.32-.37-.28-.64-.17a1.31,1.31,0,0,1-.87.09,1.52,1.52,0,0,0-1.56.36c-.21.23,0,.7.12,1.08l.34.76-.68-.48Zm6.24.69h0c-.09.22-.3.72-.31.77S89,104,89,104a3.34,3.34,0,0,1-.17.44l17.43-5.89-2.37-1.11Z"/><path d="M139.66,105.7a14.55,14.55,0,0,1-4.25-.8h0c-5.61-2.17-54.85-21.16-55.57-21.64a.69.69,0,0,1-.29-.49,3.24,3.24,0,0,1,1-2l.1-.12.15.05L100.38,87c-6.28-2.55-15.77-6.45-19.19-8l-.59-.26.62-.17s.35-.28.58-.47c.69-.57.83-.67,1-.68.94,0,1.57.12,1.85.51a.81.81,0,0,1,.15.51c2.11.6,18.29,5.18,19.88,5.74.58.21,1,.44,1.5.65a10.19,10.19,0,0,0,3.11,1c1.54.25,8.52,2.76,14.13,4.79,2.61.94,4.86,1.75,5.72,2,1.6.5,3.95.19,5.84-.06a11.69,11.69,0,0,1,2.73-.19c1.58.27,1.85,2.15,1.86,2.23l0,.18-.74.29h-.05l-5.48-.46,4.53,1.47c.52.19,4.95,1.82,5.44,2.19s.1,2.55-.14,3.56c-.32,1.31-1.07,3.54-2.47,3.78A6.54,6.54,0,0,1,139.66,105.7Zm-4.09-1.24a12.62,12.62,0,0,0,5,.71c.66-.11,1.16-.92,1.46-1.58a12.05,12.05,0,0,0,.95-3.92l-.4,1.55c-.68,2.64-2.42,4-3.65,3.85a4.66,4.66,0,0,1-2.71-1.1c-.78-.56-26.4-10.83-39.84-16.19l.16-.43,38.8,12.9c-2.05-.82-6.52-2.52-10.59-4.06-11.59-4.4-11.6-4.44-11.65-4.64l0-.12.08-.1c.17-.2.19-.23,15.12,4.49,4.43,1.39,9,2.84,9.56,3a14.82,14.82,0,0,1,4.91-.07l.11.07,0,.16c0,.3,0,.61,0,.91l.17-.3a2.47,2.47,0,0,0,0-.93c-.31-.22-3.41-1.4-5.29-2.09l-8.36-2.71,9.44.79.29-.11c-.1-.43-.45-1.49-1.45-1.66A11.81,11.81,0,0,0,135,93c-1.94.26-4.35.58-6,0-.87-.28-3.13-1.09-5.74-2-5.3-1.92-12.55-4.53-14-4.77a10.41,10.41,0,0,1-3.24-1,14.83,14.83,0,0,0-1.46-.63c-1.65-.59-19.86-5.73-20-5.78l-.24-.07.09-.24a.39.39,0,0,0-.05-.33c-.11-.14-.43-.38-1.45-.31-.05,0-.44.36-.7.57l-.34.28c5.74,2.56,24.5,10.14,24.7,10.22l-.16.44-25.5-8.24c-.79,1-.8,1.44-.78,1.57a.2.2,0,0,0,.09.16C80.9,83.34,116.73,97.2,135.57,104.46ZM103.94,90.29c11.54,4.62,32,12.83,32.59,13.31a4.15,4.15,0,0,0,2.5,1c.84.13,2-.73,2.68-2.27a3.09,3.09,0,0,1-1.64.88h-.19a.6.6,0,0,1-.52-.13c-.14-.15-.12-.35-.07-.83,0-.13,0-.29.05-.47a2.33,2.33,0,0,1,1.2-2.09l.11,0a6.06,6.06,0,0,1,1.72.22,7,7,0,0,0,0-.8,16.51,16.51,0,0,0-4.45.15c-.14.06-.16.07-9.82-3-3.44-1.09-7.62-2.41-10.65-3.34,2.15.83,4.88,1.86,7.44,2.83,11.83,4.49,11.84,4.54,11.91,4.73l0,.11-.06.1a1.82,1.82,0,0,0-.17.28l-.1.17-.18-.06Zm35.78,12.47h.35a3.65,3.65,0,0,0,2.1-1.7l.32-.56-.07-.06a4,4,0,0,0-1.72-.29c-.24.12-.79.48-.9,1.7,0,.18,0,.33,0,.46S139.72,102.66,139.72,102.76Z"/><path d="M82.44,102.16l-.28-.56a3.73,3.73,0,0,1-.55-1.64c.09-1,1.67-2.56,2.87-2.91a8.06,8.06,0,0,0,1.45-.69,5.88,5.88,0,0,1,2.6-1c1.22,0,7.51-2,7.57-2l.09,0,7.53,3.55-14.48,4.24,0-.26a1.23,1.23,0,0,1,0-.17.43.43,0,0,1-.15-.24l-.14-.11-.38-.26L89,100c1-.32,2.43-.95,3.86-1.57l2-.83-1.2.34c-2.64.73-5.37,1.49-6.1,1.64H87.4l-.07,0a7.56,7.56,0,0,0-3-.94h0c-1.36.08-1.6,1.27-1.65,2.55a3,3,0,0,1,0,.42Zm7.06-1.77a1.31,1.31,0,0,1,.13.16l12.78-3.74-6.26-3c-.8.25-6.39,2-7.62,2a5.56,5.56,0,0,0-2.37.93,8.46,8.46,0,0,1-1.55.73,4.37,4.37,0,0,0-2.54,2.5,1.69,1.69,0,0,0,.13.54c.09-1,.44-2.33,2.06-2.42h.14a8.06,8.06,0,0,1,3.06,1c.82-.17,3.45-.9,6-1.61s5-1.39,5.73-1.55l.28-.06.23,0,0,.23c0,.07-.07.15-.2.24v0l-.08,0a19.5,19.5,0,0,1-2.88,1.07c-.64.17-2.07.78-3.58,1.43-1.27.54-2.57,1.1-3.53,1.45A.27.27,0,0,1,89.5,100.39Z"/><path d="M90.53,122.69a12.86,12.86,0,0,1,12.91-13c4.78,0,7.47,1.69,9.74,5l-4,2.62a6.48,6.48,0,0,0-5.86-3.27c-4.53,0-7.62,3.88-7.62,8.66,0,4.5,3,7.62,6.72,7.62a7.32,7.32,0,0,0,6-2.8l3.7,2.84c-2.19,2.59-5.1,4.35-9.88,4.35C95.49,134.73,90.53,129.45,90.53,122.69Z" style="fill:#9b2eea"/><path d="M117.71,134.41h-4.92l14.88-24.66h.4l6.61,24.66h-5l-.71-2.84H119.4Zm9.13-11.18a23.54,23.54,0,0,1-.61-4,25.41,25.41,0,0,1-1.87,4l-2.62,4.46H128Z" style="fill:#9b2eea"/><path d="M142.24,109.71h.36l9.16,13.3L166,109.71h.43l-4.35,24.7h-4.71l1.62-9.17c.29-1.65,1-4.46,1-4.46a31.9,31.9,0,0,1-3.09,3.63l-5.72,5.43h-.39L147,124.41c-1-1.36-2.2-3.63-2.2-3.63s-.25,2.81-.54,4.46l-1.61,9.17h-4.71Z" style="fill:#9b2eea"/><path d="M171.94,134.41H167L171.33,110h5.89c6.22,0,9.78,3.52,9.78,8.81,0,6.36-4.53,10.07-11.57,10.07h-2.52Zm3.63-9.85c4.38,0,6.36-2.16,6.36-5.79,0-2.84-1.58-4.53-5.14-4.53H175.5l-1.84,10.32Z" style="fill:#9b2eea"/></svg>