<svg id="Capa_1" data-name="Capa 1" xmlns="http://www.w3.org/2000/svg" viewBox="0 0 220 148"><path d="M40.37,63V90.26c1.1,0,2.16-.05,3.22,0a1.35,1.35,0,0,0,1.34-.71q7.47-10.87,15-21.73c.07-.11.16-.21.19-.26-.23,1.06-.57,2.16-.72,3.29a16.42,16.42,0,0,0,3.54,12.7,1.68,1.68,0,0,1,.34.93c0,1.9,0,3.79,0,5.73H66.6V86.88a16.64,16.64,0,0,0,12,2.4,16.35,16.35,0,0,0,10.45-6.49v7.44h3.3V57.4h-3.3V58c0,5.14,0,10.27,0,15.41a12.24,12.24,0,0,1-1.28,5.63,12.47,12.47,0,0,1-8.94,7.18c-6.43,1.35-14.08-2.27-16-9.73-1.74-6.81,2-14.53,9.27-16.45a12.93,12.93,0,0,1,9.77,1,.76.76,0,0,0,.82,0c.9-.46,1.81-.89,2.72-1.33-1.26-1.4-5.32-3.12-9.23-3.17a17,17,0,0,0-9.51,2.76v-2c-1.25,0-2.45,0-3.64,0-.15,0-.32.24-.43.4Q56.41,66.89,50.16,76,47.09,80.5,44,85l-.21.28V57.37H42a4.81,4.81,0,0,0-2,.1c-.5.26-.77,1-1.14,1.52L20.47,85.85l-.38.52c-.29-1.08-.58-2-.8-3A41,41,0,0,1,46.21,35.05,39.54,39.54,0,0,1,59.4,32.92,41,41,0,0,1,97.2,58.5a40.51,40.51,0,0,1,3,17.92A41,41,0,0,1,71.93,113a40.14,40.14,0,0,1-16.07,1.88,41.09,41.09,0,0,1-34.06-24,1,1,0,0,1,.11-1.17Q31,76.56,40,63.45C40.1,63.33,40.2,63.21,40.37,63Z"/><path d="M115.06,70.79V59.88h3.3l2,7.44,2-7.44h3.3V70.79h-2V62.2l-2.16,8.59h-2.12l-2.16-8.59v8.59Z"/><path d="M129.31,70.79V59.88h8.09v1.85h-5.88v2.42H137V66h-5.47v3h6.09v1.83Z"/><path d="M141,59.88h4a7.76,7.76,0,0,1,2.07.21,3.7,3.7,0,0,1,1.65,1,5,5,0,0,1,1,1.77,8,8,0,0,1,.36,2.58,7.23,7.23,0,0,1-.34,2.32,4.7,4.7,0,0,1-1.17,1.93,3.91,3.91,0,0,1-1.55.87,6.41,6.41,0,0,1-2,.23H141Zm2.2,1.85V69h1.65a5.88,5.88,0,0,0,1.33-.11,2.08,2.08,0,0,0,.89-.45,2.44,2.44,0,0,0,.58-1.06,7.47,7.47,0,0,0,.22-2,6.84,6.84,0,0,0-.22-1.94,2.46,2.46,0,0,0-.63-1,2.07,2.07,0,0,0-1-.52,10.09,10.09,0,0,0-1.81-.1Z"/><path d="M153.54,70.79V59.88h8.09v1.85h-5.89v2.42h5.48V66h-5.48v3h6.1v1.83Z"/><path d="M165.29,70.79V60h2.2v9H173v1.83Z"/><path d="M176.13,70.79V60h2.2v9h5.48v1.83Z"/><path d="M186.58,59.26l1-2.23H190l-2.05,2.23Zm.26,11.53V59.88H189V70.79Z"/><path d="M192.69,70.79V59.88h2.14l4.47,7.29V59.88h2V70.79h-2.21l-4.4-7.11v7.11Z"/><path d="M115.43,81.78a5.93,5.93,0,0,1,.42-2.38,4.27,4.27,0,0,1,.87-1.28,3.55,3.55,0,0,1,1.2-.83,5,5,0,0,1,2-.37,4.36,4.36,0,0,1,3.29,1.27,5.71,5.71,0,0,1,0,7.07,4.88,4.88,0,0,1-6.57,0A4.81,4.81,0,0,1,115.43,81.78Zm1.93-.06a3.45,3.45,0,0,0,.73,2.39,2.52,2.52,0,0,0,3.69,0,3.56,3.56,0,0,0,.72-2.43,3.47,3.47,0,0,0-.7-2.38,2.36,2.36,0,0,0-1.86-.79,2.39,2.39,0,0,0-1.87.8A3.53,3.53,0,0,0,117.36,81.72Z"/><path d="M133.15,83l1.82.58a4.1,4.1,0,0,1-1.4,2.26,4,4,0,0,1-2.46.74,4,4,0,0,1-3.05-1.27,4.84,4.84,0,0,1-1.19-3.45,5.09,5.09,0,0,1,1.2-3.61,4.13,4.13,0,0,1,3.15-1.28,3.87,3.87,0,0,1,2.77,1,3.6,3.6,0,0,1,.95,1.71l-1.86.44a2,2,0,0,0-.68-1.14,2,2,0,0,0-1.28-.42,2.13,2.13,0,0,0-1.67.74,3.66,3.66,0,0,0-.64,2.41,3.93,3.93,0,0,0,.63,2.51,2.07,2.07,0,0,0,1.65.74,1.89,1.89,0,0,0,1.28-.47A2.81,2.81,0,0,0,133.15,83Z"/><path d="M143.82,83l1.82.58a4.1,4.1,0,0,1-1.4,2.26,4,4,0,0,1-2.46.74,4,4,0,0,1-3.05-1.27,4.84,4.84,0,0,1-1.19-3.45,5.09,5.09,0,0,1,1.2-3.61,4.13,4.13,0,0,1,3.15-1.28,3.87,3.87,0,0,1,2.77,1,3.6,3.6,0,0,1,1,1.71l-1.86.44a2,2,0,0,0-.68-1.14,2,2,0,0,0-1.27-.42,2.13,2.13,0,0,0-1.68.74,3.66,3.66,0,0,0-.64,2.41,3.93,3.93,0,0,0,.63,2.51,2.07,2.07,0,0,0,1.65.74,1.89,1.89,0,0,0,1.28-.47A2.81,2.81,0,0,0,143.82,83Z"/><path d="M148.49,86.37V77.08h1.87v9.29Z"/><path d="M153.44,77.08h3.43a6.66,6.66,0,0,1,1.77.18,3.12,3.12,0,0,1,1.4.85,4,4,0,0,1,.88,1.51,6.6,6.6,0,0,1,.31,2.19,6.08,6.08,0,0,1-.29,2,4.12,4.12,0,0,1-1,1.64,3.35,3.35,0,0,1-1.32.74,5.68,5.68,0,0,1-1.66.2h-3.53Zm1.88,1.57V84.8h1.4a5,5,0,0,0,1.13-.09,1.66,1.66,0,0,0,.76-.38,2,2,0,0,0,.49-.9,5.94,5.94,0,0,0,.19-1.7,5.39,5.39,0,0,0-.19-1.65,2.07,2.07,0,0,0-.53-.9,1.72,1.72,0,0,0-.87-.44,8.41,8.41,0,0,0-1.54-.09Z"/><path d="M164.12,86.37V77.08H171v1.57h-5v2.06h4.67v1.56H166V84.8h5.19v1.57Z"/><path d="M174.09,86.37V77.08h1.83l3.8,6.2v-6.2h1.74v9.29h-1.88l-3.75-6.06v6.06Z"/><path d="M186.83,86.37V78.65h-2.75V77.08h7.38v1.57h-2.75v7.72Z"/><path d="M194,86.37V77.08h6.89v1.57h-5v2.06h4.67v1.56h-4.67V84.8H201v1.57Z"/></svg>