<svg id="Capa_1" data-name="Capa 1" xmlns="http://www.w3.org/2000/svg" viewBox="0 0 220 148"><path d="M40.64,117.8H36l.91-5.24H48l-4.42,25.1H37.13Z" style="fill:#fff"/><path d="M48.67,137.08l10.63-10c3.41-3.17,4.71-4.61,4.71-6.63a2.46,2.46,0,0,0-2.69-2.65c-2,0-3.13,1.2-4,3.42l-5.87-1.49c1.78-5.63,5.92-7.6,10.24-7.6,6.2,0,8.9,3.8,8.9,7.64s-1.93,6.06-5.68,9.57L63.14,131a12.78,12.78,0,0,1-2.5,1.64s1.78-.24,2.74-.24h6.2l-.91,5.29h-20Z" style="fill:#fff"/><path d="M73.14,134a3.9,3.9,0,1,1,7.79,0,3.9,3.9,0,1,1-7.79,0Z" style="fill:#fff"/><path d="M89,117.8H84.39l.92-5.24h11l-4.42,25.1H85.5Z" style="fill:#fff"/><path d="M91.65,125.72a13.11,13.11,0,0,1,13.16-13.27c4.87,0,7.62,1.73,9.93,5.14l-4.1,2.67a6.63,6.63,0,0,0-6-3.34c-4.61,0-7.77,4-7.77,8.84,0,4.58,3,7.77,6.86,7.77a7.45,7.45,0,0,0,6.12-2.86l3.77,2.89c-2.23,2.64-5.2,4.44-10.08,4.44C96.71,138,91.65,132.61,91.65,125.72Z" style="fill:#fff"/><path d="M119.36,137.67h-5l15.18-25.14h.4l6.74,25.14h-5.09l-.73-2.9h-9.75Zm9.31-11.4a23.85,23.85,0,0,1-.62-4.1,25.51,25.51,0,0,1-1.91,4.06l-2.67,4.55h6.34Z" style="fill:#fff"/><path d="M144.36,112.49h.37l9.35,13.56,14.51-13.56H169l-4.43,25.18h-4.8l1.64-9.35c.3-1.68,1-4.54,1-4.54a32.64,32.64,0,0,1-3.15,3.7L153.45,133h-.4l-3.88-5.54c-1-1.39-2.24-3.7-2.24-3.7s-.26,2.86-.55,4.54l-1.65,9.35h-4.8Z" style="fill:#fff"/><path d="M174.64,137.67h-5l4.4-24.92h6c6.34,0,10,3.59,10,9,0,6.48-4.62,10.26-11.8,10.26h-2.57Zm3.7-10c4.48,0,6.49-2.2,6.49-5.9,0-2.9-1.61-4.62-5.24-4.62h-1.32l-1.87,10.52Z" style="fill:#fff"/><path d="M92.11,70.83c.13-.08.27-.15.39-.24a3.44,3.44,0,0,0,.7-5.21c0-.06,3.27.74,3,5.18,1.68-2.24,2.52-6.38-.18-9,0,0,8.44-.32,8.17,9.86-.12,4.4,3.7-1.19,4.57-8.64,1-8.25-1.63-15.39,6.3-22.65,0,0-4.18,11.13,4.06,17.84,3.16,2.58,5.25,2.72,7.17,6.63a13.9,13.9,0,0,0-1.06-6.7c-.05-.1,5.31,2.42,5.31,7.89a9.83,9.83,0,0,1-5,9.1c12.27-4.41,14.26-12.47,13.07-20.19q-.21-1.29-.51-2.55A25.32,25.32,0,0,0,134.94,45a26.82,26.82,0,0,0-1.62-5.76,13.46,13.46,0,0,1-.8-2.61c-.6,5.25-10.26,11.29-9.66-3.67,0-.63,0-1.24,0-1.84s-.08-1.19-.15-1.77c-1.11-4-1.5-8.66-4.82-11.56-.57-.77-1.16-1.48-1.75-2.14A33.2,33.2,0,0,0,109,9.54c9.66,9.51-8.15,37.83-6.94,28.64S97.5,26.77,97.5,26.77a8.41,8.41,0,0,1-.57,5.76,13.64,13.64,0,0,1-1,1.64c-2.22,3.75-5.75,6.89-8.71,10.13A17.55,17.55,0,0,0,86.17,46a17.32,17.32,0,0,0-2.31,8.15,18,18,0,0,0,0,2.84A18.72,18.72,0,0,0,92.11,70.83Zm39.34,10.69c-.57,0-.57.9-1.06,1.3s-11.92,3.49-11.92,3.49l2.06.58c1.36-.25,8-1.88,10.06-2.24,0,0,.08.06,0,.08a66.21,66.21,0,0,1-6.28,2.64l16.79-3.51-13.71,5.4,2.49,1,10.87-3.41c2.68-1.46,2.6-3.49,1.95-4.54a3.72,3.72,0,0,0-3.25-1.55c-1.29,0-6,.65-6.57.73A8.9,8.9,0,0,1,131.45,81.52ZM83.37,99a7.87,7.87,0,0,1,3.22,1c1.45-.28,10.52-2.92,12-3.23l.28-.07c.1,0-2.77,1.06-3,1.12-1.31.35-5.62,2.39-7.65,3.07.42.3.13.18.32.39s.07.11.09.3l13.9-4.07-7-3.31s-6.49,2-7.79,2-2.92,1.38-4.06,1.71-2.67,1.86-2.76,2.75a3.94,3.94,0,0,0,.54,1.54C81.53,101.79,81.21,99.13,83.37,99ZM92.54,104l3-1,0,0,10.83-3.65-3-1.44-15,5.74c0,.07-.34.83-.37.89-.24.67-.24,1.15-1.27,1a5,5,0,0,1-1.44-.66,12.63,12.63,0,0,1-1.3-2.28c-.33-.93-.12-.53,1.26-.69s1.5,1.5,1.5,1.5a3.51,3.51,0,0,0-.69-1.9c-.65-.77-.9,0-1.67-.17a1.75,1.75,0,0,0-1.82.45c-.31.34-.1.92.09,1.35l-1.2-.86c.71,1.39,1.93,3.15,2.53,3.36a11.94,11.94,0,0,0,3.37.09l4.6-1.55Zm44-2.39Zm6.82-2.44c-.49-.36-5.48-2.19-5.48-2.19l-6.57-2.13,7.63.64.52-.21s-.24-1.83-1.7-2.07-6.09,1.09-8.76.24-17.9-6.57-20.21-6.94-3-1.09-4.75-1.7-20.45-5.9-20.45-5.9.43-1.1-1.76-1c-.16,0-1.37,1.12-1.52,1.16,5.42,2.45,25.56,10.59,25.56,10.59L79.74,81.19c-1,1.14-1.17,2-.75,2.24.73.49,56.6,22,56.6,22a12.78,12.78,0,0,0,5.23.73C143,105.83,143.87,99.5,143.38,99.13Zm-.58,1.81a4.8,4.8,0,0,0-2-.35,2.14,2.14,0,0,0-1.09,2c-.12,1.34-.23,1.19.5,1.19a3.92,3.92,0,0,0,2.36-1.85c-.65,2.51-2.3,3.94-3.45,3.74a4.46,4.46,0,0,1-2.66-1.07C135.69,103.9,95.83,88,95.83,88l40.73,13.55s.06-.11.18-.31S112.85,92.2,113,92s24.82,7.78,25,7.69c.73-.32,4.87-.32,4.87-.08A9.33,9.33,0,0,1,142.8,100.94Z" style="fill:#fff"/><path d="M143.66,101.83a3.88,3.88,0,0,1-2.35,1.85c-.73,0-.63.15-.51-1.19a2.14,2.14,0,0,1,1.09-1.95,4.8,4.8,0,0,1,2,.35,9.33,9.33,0,0,0,.09-1.32c0-.25-4.14-.24-4.87.09-.19.08-24.85-7.85-25-7.65s23.88,9,23.75,9.21-.17.27-.18.3h0L96.85,88.05s39.89,15.81,40.71,16.46a4.52,4.52,0,0,0,2.66,1.07C141.37,105.77,143,104.34,143.66,101.83Z" style="fill:none"/><path d="M129.14,122.14a25.85,25.85,0,0,1-1.9,4.07l-2.67,4.55h6.34l-1.14-4.51A23.3,23.3,0,0,1,129.14,122.14Z" style="fill:none"/><path d="M180.67,117h-1.32l-1.85,10.52h1.94c4.47,0,6.49-2.21,6.48-5.91C185.91,118.7,184.3,117,180.67,117Z" style="fill:none"/><polygon points="37.11 117.94 41.72 117.93 38.25 137.79 44.69 137.78 49.07 112.68 38.01 112.7 37.11 117.94" style="fill:#fff"/><path d="M66,129.43c3.75-3.52,5.67-5.88,5.66-9.58s-2.71-7.64-8.91-7.63c-4.32,0-8.46,2-10.22,7.62l5.86,1.48c.91-2.22,2.06-3.42,4-3.42a2.45,2.45,0,0,1,2.69,2.64c0,2-1.29,3.46-4.7,6.64l-10.6,10v.57l20,0,.9-5.29h-6.2c-1,0-2.74.24-2.74.24a13.1,13.1,0,0,0,2.5-1.64Z" style="fill:#fff"/><path d="M78.14,130a4,4,0,1,0,3.9,4A3.9,3.9,0,0,0,78.14,130Z" style="fill:#fff"/><path d="M96.83,116.08l.6-3.49-11.05,0-.91,5.24h4.62l-3.48,19.86,6.45,0,1.06-6.08a12.86,12.86,0,0,1-1.37-5.85A13.12,13.12,0,0,1,96.83,116.08Z" style="fill:#fff"/><path d="M104.85,133.54c-3.84,0-6.85-3.17-6.86-7.75,0-4.88,3.13-8.84,7.75-8.85a6.59,6.59,0,0,1,6,3.33l4.1-2.69c-2.31-3.4-5.07-5.12-9.94-5.11a13.17,13.17,0,0,0-9,3.61l-2.71,15.53A11.61,11.61,0,0,0,104.68,138c4.87,0,7.84-1.81,10.07-4.46L111,130.68A7.45,7.45,0,0,1,104.85,133.54Z" style="fill:#fff"/><path d="M130.59,112.5l-15.13,25.17h5l1.72-2.9,9.75,0,.73,2.9h5.1L131,112.5Zm-6,18.26,2.67-4.55a25.85,25.85,0,0,0,1.9-4.07,23.3,23.3,0,0,0,.63,4.1l1.14,4.51Z" style="fill:#fff"/><path d="M155.17,126l-9.37-13.55h-.36l-4.39,25.19h4.8l1.63-9.35c.29-1.68.54-4.54.54-4.54s1.25,2.3,2.24,3.69l3.9,5.53h.4l5.82-5.54a33.93,33.93,0,0,0,3.14-3.71s-.69,2.86-1,4.55l-1.63,9.34h4.8l4.39-25.19h-.44Z" style="fill:#fff"/><path d="M181.1,112.63h-6l-4.35,24.93h5l1-5.68h2.56c7.19,0,11.8-3.79,11.79-10.28C191.08,116.2,187.44,112.61,181.1,112.63Zm-1.66,14.88H177.5L179.35,117h1.32c3.63,0,5.24,1.71,5.25,4.61C185.93,125.3,183.91,127.5,179.44,127.51Z" style="fill:#fff"/><path d="M93.1,70.87c.14-.08.27-.15.4-.24a3.43,3.43,0,0,0,.68-5.21c0-.06,3.27.73,3,5.17,1.68-2.24,2.51-6.38-.19-9,0,0,8.44-.34,8.18,9.85-.11,4.4,3.71-1.2,4.56-8.65,1-8.26-1.65-15.38,6.26-22.67,0,0-4.16,11.14,4.09,17.84,3.16,2.57,5.26,2.71,7.18,6.61a13.78,13.78,0,0,0-1.07-6.69c-.05-.1,5.32,2.41,5.33,7.87a9.84,9.84,0,0,1-5,9.12c12.27-4.43,14.24-12.5,13-20.22-.13-.85-.31-1.71-.51-2.55a25.05,25.05,0,0,0-3.1-7.16,26.25,26.25,0,0,0-1.62-5.76,13.34,13.34,0,0,1-.81-2.6c-.59,5.24-10.24,11.31-9.66-3.66,0-.62,0-1.24,0-1.84s-.08-1.19-.15-1.76c-1.12-4-1.52-8.67-4.84-11.56-.57-.76-1.16-1.48-1.75-2.14a33.15,33.15,0,0,0-7.19-6.07C119.53,19,101.77,47.39,103,38.2s-4.55-11.4-4.55-11.4a8.41,8.41,0,0,1-.55,5.76,13.64,13.64,0,0,1-1,1.64c-2.21,3.76-5.74,6.9-8.7,10.14-.39.57-.76,1.15-1.09,1.75a17.32,17.32,0,0,0-2.3,8.16,19.09,19.09,0,0,0,0,2.83A18.71,18.71,0,0,0,93.1,70.87Z" style="fill:#fff"/><path d="M132.46,81.49c-.56,0-.56.89-1.05,1.3s-11.92,3.51-11.92,3.51l2.06.57c1.36-.25,8-1.89,10.06-2.26,0,0,.08.07,0,.09-1.93.89-4.08,1.89-6.27,2.65l16.77-3.54-13.7,5.43,2.5,1,10.87-3.43c2.67-1.47,2.59-3.5,1.93-4.55a3.7,3.7,0,0,0-3.24-1.53c-1.3,0-6,.66-6.58.74A8.9,8.9,0,0,1,132.46,81.49Z" style="fill:#fff"/><path d="M137.61,101.52Z" style="fill:#fff"/><path d="M88.41,105.76,93,104.2l.58-.2,3-1,0,0,10.82-3.67-3-1.43-15,5.76-.36.89c-.24.67-.24,1.16-1.28,1a5.08,5.08,0,0,1-1.44-.66,12.89,12.89,0,0,1-1.3-2.28c-.33-.93-.12-.52,1.26-.69s1.5,1.5,1.5,1.5a3.54,3.54,0,0,0-.69-1.91c-.65-.76-.9,0-1.67-.15a1.73,1.73,0,0,0-1.82.45c-.31.34-.1.91.09,1.34-.64-.44-1.12-.79-1.2-.86.71,1.4,1.94,3.15,2.54,3.37A12.23,12.23,0,0,0,88.41,105.76Z" style="fill:#fff"/><path d="M84.41,99.06a7.91,7.91,0,0,1,3.23,1c1.44-.28,10.51-2.94,12-3.26l.28-.06c.1,0-2.76,1.06-3,1.12-1.32.35-5.62,2.4-7.65,3.09.42.29.13.18.32.39s.07.1.09.3l13.9-4.1-7-3.3s-6.49,2-7.79,2.05-2.92,1.38-4,1.71-2.68,1.87-2.76,2.76a4,4,0,0,0,.54,1.54C82.58,101.84,82.26,99.19,84.41,99.06Z" style="fill:#fff"/><path d="M144.42,99.08c-.48-.37-5.48-2.18-5.48-2.18l-6.57-2.12,7.63.62.52-.21s-.24-1.83-1.71-2.07-6.08,1.11-8.76.26-17.9-6.54-20.22-6.9-3-1.09-4.75-1.69-20.46-5.87-20.46-5.87.43-1.1-1.76-1c-.16,0-1.37,1.12-1.52,1.16,5.42,2.44,25.58,10.54,25.58,10.54l-26.17-8.4c-1,1.14-1.17,2-.75,2.24.74.49,56.65,21.93,56.65,21.93a12.85,12.85,0,0,0,5.23.72C144.07,105.77,144.91,99.44,144.42,99.08Zm-4.2,6.5a4.52,4.52,0,0,1-2.66-1.07c-.82-.65-40.71-16.46-40.71-16.46l40.76,13.47s.06-.1.18-.3S113.88,92.2,114,92s24.84,7.73,25,7.65c.73-.33,4.87-.34,4.87-.09a9.33,9.33,0,0,1-.09,1.32,4.8,4.8,0,0,0-2-.35,2.14,2.14,0,0,0-1.09,1.95c-.12,1.34-.22,1.2.51,1.19a3.88,3.88,0,0,0,2.35-1.85C143,104.34,141.37,105.77,140.22,105.58Z" style="fill:#fff"/></svg>