<svg id="Capa_1" data-name="Capa 1" xmlns="http://www.w3.org/2000/svg" viewBox="0 0 220 148"><path d="M78.18,28.32v42.1c0,1.79-1.3,12.39-15.19,12.39l-8.1.63V127H46.23V27.12L43,25.33V21h21.8C72.36,21,78.18,24.28,78.18,28.32ZM58.78,72.51,65.2,71a.79.79,0,0,0,.89-.89L67.58,32.5c-.15-2.24-1.64-4.78-6.27-4.78H58.78c-1.2,0-1.8.3-1.8,1V71.31C57,71.76,57.73,72.51,58.78,72.51Z" fill="#47ff82"/><path d="M107.74,21h6.42c3.14,0,5.38,2.69,5.53,6.42l1.49,43-6.72,8.81,11.94,44.49L123.57,127h-8.81l-7.61-45.65-7.62.84L96.4,127H89.53V22.64C89.53,21.45,101.77,21,107.74,21ZM111,31.45l-2.24-2.24-10.3,1.05L99,68.57l11.1-.21Z" fill="#47ff82"/><path d="M136.85,21h30.31V32.65H145.81V63.4h16.27v7.46l-15.52,2.69v38.07l20.15-2.68L168.5,124H133.42Z" fill="#47ff82"/><g style="isolation:isolate"><path d="M171.38,58c-.06-1.13-.43-1.83-1.1-2.11-.92-.38-1.82-.78-2.7-1.19a46.62,46.62,0,0,0-4.52-1.56,1.71,1.71,0,0,0-.53-.08,1.54,1.54,0,0,0-.92.4q-2.46,2.05-10,10.65L148,68.25a2.73,2.73,0,0,0-.36.66c-.94,2-1.57,3.38-1.88,4-.44.88-.78,1.36-1,1.45l0-.21a19.84,19.84,0,0,1,.37-3,20.84,20.84,0,0,0,.42-3.35.8.8,0,0,0-.08-.37,11.81,11.81,0,0,0-3.25-1.82,2,2,0,0,1-1.14-.69,6.85,6.85,0,0,0-1.46-1.42c-.23-.12-.57-.26-1.1-.49a2.73,2.73,0,0,1-.6-.28,4.44,4.44,0,0,0-1.56-.53,10.71,10.71,0,0,0-3.38-1.32c-.47-.13-1-.27-1.43-.44a1.56,1.56,0,0,0-.49-.08c-.39,0-.66.29-.87.92q-3.06,7-3.33,7.76a15.85,15.85,0,0,1-.63,1.47l-1.38,2.82q-1.14,2.52-2.53,5c-.12.27-.25.58-.41.93q-1,2.19-2.84,6.35a18.68,18.68,0,0,0-1,2.74,2.65,2.65,0,0,0-.17.86c0,.28.4.52,1.15.7a.7.7,0,0,1,.31,0,5.4,5.4,0,0,0,1.68.58,8.1,8.1,0,0,1,1.37.44.73.73,0,0,0,.37.08.63.63,0,0,0,.36-.13,1.5,1.5,0,0,1,.93-.34h.46a.74.74,0,0,0,.45-.2A12.3,12.3,0,0,0,128,86.57a2.77,2.77,0,0,1,1.26-1.49,1.17,1.17,0,0,0,.49-.6,16.88,16.88,0,0,1,1.85-3c.51-.71,1-1.43,1.5-2.24l.17-.06.11.4a5.75,5.75,0,0,1-.14,1.2,16.54,16.54,0,0,0-.35,3l0,.43c0,.41.12.67.29.79l2.59,1.35a24.56,24.56,0,0,0,5.49,1.83,3.45,3.45,0,0,0,.89.09,2.74,2.74,0,0,0,1.37-.42A12.22,12.22,0,0,0,146,84.72c.58-.9,1-1.53,1.3-1.89a72.64,72.64,0,0,0,5.1-5.48L153.65,76a1.11,1.11,0,0,1,.62-.42c.1,0,.17,0,.2.09a.29.29,0,0,1,.06.15,10.72,10.72,0,0,1-.24,1.72,29.76,29.76,0,0,0-1.08,8.53c.12,2.06.57,3.13,1.34,3.23a4.38,4.38,0,0,1,2.11.85,2.2,2.2,0,0,0,1.15.23,2.59,2.59,0,0,1,.95.15l.6-.3a2.53,2.53,0,0,0,1.4-1.21A11,11,0,0,1,162,86.64a3.44,3.44,0,0,0,.73-1.82,8.46,8.46,0,0,1,.7-2.29,9.81,9.81,0,0,0,.74-2.28c.42-1.67.65-2.67.69-3a1.38,1.38,0,0,1,.14-.62,9.3,9.3,0,0,0,.8-2.09,14.9,14.9,0,0,1,.65-1.79A9.09,9.09,0,0,0,167,70.9a38.84,38.84,0,0,1,1.71-5l2.45-6.46A3.56,3.56,0,0,0,171.38,58Z" fill="#9b2eea"/><path d="M121.52,79.71l.34-.56c.16-.35.29-.66.41-.93q1.4-2.44,2.53-5l1.38-2.82A16.28,16.28,0,0,0,127,65a6.62,6.62,0,0,0-2.85-5.57.53.53,0,0,1-.2-.13l-1-.63-.44-.24a14.7,14.7,0,0,0-5.41-2.18c-.28-.05-.56-.1-.82-.17a6.14,6.14,0,0,0-1.54-.14,6.62,6.62,0,0,0-2.69.71,7,7,0,0,1-.9.36,29.62,29.62,0,0,0-12,7.88,6.25,6.25,0,0,0-2.74-4.49.53.53,0,0,1-.2-.13l-1-.63-.44-.24a14.7,14.7,0,0,0-5.41-2.18c-.28,0-.56-.1-.82-.17A6.14,6.14,0,0,0,87,56.94a6.62,6.62,0,0,0-2.69.71,7,7,0,0,1-.9.36,29.62,29.62,0,0,0-12.69,8.6A7.61,7.61,0,0,0,69,69.43a2.7,2.7,0,0,0-.19,1.09,2.33,2.33,0,0,0,1,1.7c.31.22.6.43.86.64a5.54,5.54,0,0,0,1,.65,5.48,5.48,0,0,1,1.23.86l-.5.89a10.52,10.52,0,0,0-1,1.9,3.62,3.62,0,0,0-.54-.36A26.54,26.54,0,0,0,66.62,75a20.1,20.1,0,0,1-3.13-1.51c-.31-.15-.47-.3-.48-.44a.76.76,0,0,1,.19-.41q.19-.27.36-.54a3.12,3.12,0,0,1,.88-1,9.36,9.36,0,0,0,1.87-2.16q1.13-1.62,2.19-3.39c.7-1.18,1.24-2.1,1.6-2.76a3,3,0,0,0,.36-1.58,2.8,2.8,0,0,0-1.73-2.5l-1.15-.5c-.88-.39-1.76-.8-2.62-1.21A19.33,19.33,0,0,0,62.59,56c-.49-.16-1-.35-1.48-.55A9,9,0,0,0,57.65,55a15.27,15.27,0,0,0-3,.44,34.5,34.5,0,0,0-7.41,2.73,26,26,0,0,0-5.41,3.4C40.6,62.6,40,63.41,40.05,64a.91.91,0,0,0,.21.54,11.79,11.79,0,0,0,3.15,1.85,10.66,10.66,0,0,0,4,1.09.8.8,0,0,0,.83-.66,3.41,3.41,0,0,1,2-2l6.56-3.09a4.18,4.18,0,0,1,1.3-.44.27.27,0,0,1,.32.29,3.75,3.75,0,0,1-.81,1.66,5.85,5.85,0,0,0-.57,1.1,1.94,1.94,0,0,1-.56,1.2l-4.88,6.74a1,1,0,0,1-.79.48C50.48,71.14,49,69.88,46.41,69a36.4,36.4,0,0,0-3.79-1.08l-.24,0c-.22,0-.37.16-.46.44Q40.39,74.09,38.77,79q-2.1,6.52-3,10a19.48,19.48,0,0,0-.83,4.75c0,.54.14.83.31.87a1.67,1.67,0,0,0,.47.07l.51,0a.31.31,0,0,1,.28.11,1.36,1.36,0,0,0,.56.39,3.26,3.26,0,0,0,.65.12,2.79,2.79,0,0,1,.69.17,2.77,2.77,0,0,0,1.13.24,4,4,0,0,0,2-.83,9.83,9.83,0,0,1,.87-.51l1.32-2.7a4.73,4.73,0,0,1,.87-2.23A2,2,0,0,1,45,89.1a.87.87,0,0,0,.54-.63,18.67,18.67,0,0,1,.71-1.74,12.32,12.32,0,0,0,.87-2.14,1.75,1.75,0,0,1,.27-.58,6.43,6.43,0,0,0,1-2,5.44,5.44,0,0,1,.81-1.88l.25,0a3.67,3.67,0,0,1,1,.35l3.82,1.68a8.75,8.75,0,0,0,1.3.07c1.2,0,1.81.06,1.82.3s-1.83,2.35-5.54,6.26q-3.69,3.92-5.94,6.17a2,2,0,0,0-.58,1.29c1.1,0,1.66.12,1.64.39a.7.7,0,0,0,0,.16c0,.12.18.24.5.37a7,7,0,0,0,2.56.48,3,3,0,0,0,.86-.15,6.57,6.57,0,0,0,2.14-1,2.24,2.24,0,0,1,1.14-.55l.27,0a3.6,3.6,0,0,0,1.81-1.12,5.31,5.31,0,0,1,1.94-1.3q2.73-2.66,3.57-3.29a5.41,5.41,0,0,0,1.64-1.87,4.71,4.71,0,0,1,1.42-1.46,5.06,5.06,0,0,0,.49-.41l.27,0a1.53,1.53,0,0,0,1.16-.83,9.23,9.23,0,0,1,1.51-1.5l.38-.32a13.67,13.67,0,0,0-.19,1.45v.42q.15,2.53,3.55,4.06a21.31,21.31,0,0,0,4.49,1.68,10,10,0,0,0,5.84-.28,17.59,17.59,0,0,0,6.24-4.3c1.09-1.13,2.15-2.3,3.2-3.57a26.09,26.09,0,0,0,2-2.55Q94.9,78.82,96,76.89l.81-1.4a5.74,5.74,0,0,0,1-2c.15-.56.32-1.13.5-1.7l-.09-.07.09.07.11.09a5.54,5.54,0,0,0,1,.65,5.48,5.48,0,0,1,1.23.86l-.5.88a11.48,11.48,0,0,0-1.06,2,9.52,9.52,0,0,1-.7,1.34,13.85,13.85,0,0,0-2.22,6.61v.42q.15,2.53,3.55,4.06a21.11,21.11,0,0,0,4.49,1.68,10,10,0,0,0,5.84-.28,17.5,17.5,0,0,0,6.24-4.3c1.09-1.13,2.15-2.3,3.2-3.57A26.09,26.09,0,0,0,121.52,79.71ZM92.59,65.56A30.37,30.37,0,0,1,86.2,78.62a42,42,0,0,1-7.26,7.07,17.6,17.6,0,0,1-3.57,1.93l-.16,0q-.25,0-.27-.27l0-.62a12.5,12.5,0,0,1,1.84-5.42l.18-.26a24.55,24.55,0,0,1,5.14-6.65l.85-.73a1.38,1.38,0,0,0,.52-1.1,2,2,0,0,0-.63-1.21,10.5,10.5,0,0,0-3.46-2.05L79,69.16a1.6,1.6,0,0,0-.3-.11,2,2,0,0,1-.32-.13.8.8,0,0,1-.29-.31l.31-.38a6.78,6.78,0,0,1,.76-.86c.44-.39.87-.78,1.3-1.19a18.72,18.72,0,0,1,2-1.77,3,3,0,0,0,1-.79A5.62,5.62,0,0,1,86.09,62a29.52,29.52,0,0,1,3.08-1.2,9,9,0,0,1,1.45-.44c.22,0,.42,0,.61,0a1.51,1.51,0,0,1,1.07.24,2.77,2.77,0,0,1,.55,1.88A11.11,11.11,0,0,1,92.59,65.56Zm4.57,1.93c-.09.19-.18.38-.26.57C97,67.87,97.07,67.68,97.16,67.49Zm.73-1.17a7.16,7.16,0,0,0-.55.84A7.16,7.16,0,0,1,97.89,66.32Zm-1.3,2.73c0-.1,0-.21.07-.31C96.63,68.84,96.61,69,96.59,69.05Zm.93,2.2a2.89,2.89,0,0,1-.4-.38,2.89,2.89,0,0,0,.4.38l.21.15Zm.44-5a6,6,0,0,1,.53-.6l.3-.34-.3.34A6,6,0,0,0,98,66.24Zm16,11.41a42,42,0,0,1-7.26,7.07,17.87,17.87,0,0,1-3.57,1.93l-.16,0q-.25,0-.27-.27l0-.62a12.5,12.5,0,0,1,1.84-5.42l.18-.26a24.55,24.55,0,0,1,5.14-6.65l.85-.73a1.38,1.38,0,0,0,.52-1.1,1.93,1.93,0,0,0-.63-1.21,10.71,10.71,0,0,0-3.46-2.06l-.38-.18a1.6,1.6,0,0,0-.3-.11,2,2,0,0,1-.32-.13.8.8,0,0,1-.29-.31l.31-.38a6.78,6.78,0,0,1,.76-.86c.44-.39.87-.78,1.3-1.19a18.72,18.72,0,0,1,2-1.77,3.13,3.13,0,0,0,1-.79A5.62,5.62,0,0,1,113.88,61,29.52,29.52,0,0,1,117,59.8a9,9,0,0,1,1.45-.44c.22,0,.42,0,.61,0a1.51,1.51,0,0,1,1.07.24,2.77,2.77,0,0,1,.55,1.88,11.49,11.49,0,0,1-.26,3.16A30.37,30.37,0,0,1,114,77.65Z" fill="#9b2eea"/><path d="M160.49,54.51l-3.41,3.29q-2.76,2.66-8.86,9.63l-3.62,4.11a2.73,2.73,0,0,0-.36.66c-1,2-1.58,3.38-1.89,4a5.12,5.12,0,0,1-.83,1.32l3.42-3.29a5.42,5.42,0,0,0,.83-1.32c.31-.6.94-1.93,1.88-4a2.73,2.73,0,0,1,.36-.66l3.62-4.11Q157.73,57.18,160.49,54.51Z" fill="#581a83"/><path d="M158.76,90.52a2.59,2.59,0,0,0-.95-.15,2.2,2.2,0,0,1-1.15-.23,4.38,4.38,0,0,0-2.11-.85c-.77-.1-1.22-1.17-1.34-3.23a29.76,29.76,0,0,1,1.08-8.53,10.72,10.72,0,0,0,.24-1.72.29.29,0,0,0-.06-.15c0-.07-.1-.09-.2-.09a.81.81,0,0,0-.49.29l-3.41,3.29a.78.78,0,0,1,.49-.29c.1,0,.17,0,.2.09a.37.37,0,0,1,.05.15,9.21,9.21,0,0,1-.23,1.72,29.42,29.42,0,0,0-1.08,8.53c.12,2.06.56,3.13,1.33,3.23a4.5,4.5,0,0,1,2.12.84,2.07,2.07,0,0,0,1.14.24,2.45,2.45,0,0,1,.72.08l.24.07h0l.59-.3a3.52,3.52,0,0,0,1-.63l3.42-3.29a3.59,3.59,0,0,1-1,.63Z" fill="#581a83"/><path d="M142.21,88.31a3.45,3.45,0,0,1-.89-.09,24.56,24.56,0,0,1-5.49-1.83L133.24,85c-.17-.12-.26-.38-.29-.79l0-.43a16.54,16.54,0,0,1,.35-3,5.75,5.75,0,0,0,.14-1.2l-.11-.4-.17.06-3.41,3.28.17,0,.11.4a7,7,0,0,1-.15,1.2,16.22,16.22,0,0,0-.34,3l0,.43a1,1,0,0,0,.29.79l2.59,1.35a24.63,24.63,0,0,0,5.48,1.83,3.49,3.49,0,0,0,.89.09,2.92,2.92,0,0,0,1.37-.42,1.34,1.34,0,0,0,.3-.23l3.41-3.29a1.25,1.25,0,0,1-.29.23A2.74,2.74,0,0,1,142.21,88.31Z" fill="#581a83"/><path d="M105.42,68c.47-.43,1-.84,1.45-1.22a2,2,0,0,0,.51-.33,1.62,1.62,0,0,0,.2-.18l1-.92a5.91,5.91,0,0,1,1.92-1,32.58,32.58,0,0,1,3.08-1.19,8.25,8.25,0,0,1,1.45-.44c.23,0,.43,0,.61,0a1.54,1.54,0,0,1,1.08.24,2.82,2.82,0,0,1,.55,1.88,11.12,11.12,0,0,1-.27,3.16,30.26,30.26,0,0,1-6.39,13.06c-1,1.22-2,2.33-3,3.31l-1,1,3.41-3.29A54.81,54.81,0,0,0,114,77.65a30.37,30.37,0,0,0,6.39-13.06,11.49,11.49,0,0,0,.26-3.16,2.77,2.77,0,0,0-.55-1.88,1.51,1.51,0,0,0-1.07-.24c-.19,0-.39,0-.61,0a9,9,0,0,0-1.45.44,29.52,29.52,0,0,0-3.08,1.2,5.7,5.7,0,0,0-2.33,1.36l-.89.86a1.93,1.93,0,0,1-.38.22,19.55,19.55,0,0,0-1.7,1.46l-.56.54q-.52.5-1,1l-3.42,3.29c.45-.39.88-.79,1.3-1.19Z" fill="#581a83"/><path d="M130.54,60.49l-3.42,3.29a1.84,1.84,0,0,0-.39.72q-3.06,7-3.34,7.76a12.54,12.54,0,0,1-.62,1.46l-1.38,2.83c-.76,1.68-1.61,3.33-2.53,5l-.41.93c-.64,1.46-1.59,3.57-2.85,6.35a18.63,18.63,0,0,0-1,2.74,2.65,2.65,0,0,0-.17.86c0,.28.4.52,1.14.69a1.12,1.12,0,0,1,.31,0,5.31,5.31,0,0,0,1.69.59,7.29,7.29,0,0,1,1.37.44.71.71,0,0,0,.37.08.66.66,0,0,0,.36-.13,1.5,1.5,0,0,1,.93-.34h.46a.7.7,0,0,0,.44-.2l.42-.35.39-.36,3.42-3.29c-.26.25-.53.48-.81.71a.74.74,0,0,1-.45.2H124a1.5,1.5,0,0,0-.93.34.63.63,0,0,1-.36.13.73.73,0,0,1-.37-.08,8.1,8.1,0,0,0-1.37-.44,5.4,5.4,0,0,1-1.68-.58.53.53,0,0,0-.16,0,.38.38,0,0,0-.15,0c-.75-.18-1.13-.42-1.15-.7a2.65,2.65,0,0,1,.17-.86,18.68,18.68,0,0,1,1-2.74q1.88-4.16,2.84-6.35c.16-.35.29-.66.41-.93q1.4-2.44,2.53-5l1.38-2.82a15.85,15.85,0,0,0,.63-1.47q.27-.75,3.33-7.76A1.72,1.72,0,0,1,130.54,60.49Z" fill="#581a83"/><path d="M92.85,62.4a2.77,2.77,0,0,0-.55-1.88,1.51,1.51,0,0,0-1.07-.24c-.19,0-.39,0-.61,0a9,9,0,0,0-1.45.44A29.52,29.52,0,0,0,86.09,62a5.87,5.87,0,0,0-1.54.72,6,6,0,0,0-.79.64l-.9.86a1.63,1.63,0,0,1-.37.22,19.55,19.55,0,0,0-1.7,1.46l-.58.56-1,.94-3.41,3.29c.44-.39.87-.78,1.29-1.19l.57-.55c.19-.17.38-.35.58-.51s.57-.48.87-.71a2.27,2.27,0,0,0,.71-.51l1-.93a5.72,5.72,0,0,1,1.91-1,30.41,30.41,0,0,1,3.08-1.2,9.3,9.3,0,0,1,1.45-.44c.22,0,.43,0,.61,0a1.54,1.54,0,0,1,1.08.24,2.82,2.82,0,0,1,.55,1.88,11.12,11.12,0,0,1-.27,3.16,30.24,30.24,0,0,1-6.38,13.06q-1,1.23-2,2.28l-1,1c-.17.16-.32.32-.48.48l-.48.46,3.42-3.29a54.69,54.69,0,0,0,3.93-4.25,30.37,30.37,0,0,0,6.39-13.06A11.11,11.11,0,0,0,92.85,62.4Z" fill="#581a83"/><path d="M110.05,90.13a10,10,0,0,1-5.84.28,21.11,21.11,0,0,1-4.49-1.68q-3.41-1.53-3.55-4.06v-.42a13.85,13.85,0,0,1,2.22-6.61,9.52,9.52,0,0,0,.7-1.34,11.48,11.48,0,0,1,1.06-2l.5-.88a5.48,5.48,0,0,0-1.23-.86,5.54,5.54,0,0,1-1-.65l-.11-.09a9.09,9.09,0,0,0-.75-.55,2.33,2.33,0,0,1-1-1.7,2.54,2.54,0,0,1,.19-1.09,7.3,7.3,0,0,1,1.74-2.82c.21-.25.42-.48.64-.72s.39-.42.59-.62l.61-.61L96.92,67c-.41.4-.81.81-1.21,1.23l-.64.71a7.39,7.39,0,0,0-1.73,2.83,2.54,2.54,0,0,0-.19,1.09,2.33,2.33,0,0,0,1,1.7c.26.18.51.36.74.55l.12.09a5.54,5.54,0,0,0,1,.65,5.48,5.48,0,0,1,1.23.86l-.51.88a11.09,11.09,0,0,0-1,2A9.59,9.59,0,0,1,95,80.93a13.73,13.73,0,0,0-2.21,6.61V88Q92.89,90.5,96.3,92a22,22,0,0,0,4.5,1.68,10,10,0,0,0,5.83-.28,17.57,17.57,0,0,0,5.6-3.64l3.42-3.29A17.68,17.68,0,0,1,110.05,90.13Z" fill="#581a83"/><path d="M82.26,91.1a10,10,0,0,1-5.84.28,21.31,21.31,0,0,1-4.49-1.68q-3.41-1.53-3.55-4.06v-.42a13.67,13.67,0,0,1,.19-1.45,13.35,13.35,0,0,1,2-5.16,10.7,10.7,0,0,0,.7-1.34,1.17,1.17,0,0,1,0-.11,10.52,10.52,0,0,1,1-1.9l.5-.89a5.48,5.48,0,0,0-1.23-.86,5.54,5.54,0,0,1-1-.65c-.26-.21-.55-.42-.86-.64a2.33,2.33,0,0,1-1-1.7A2.7,2.7,0,0,1,69,69.43a7.61,7.61,0,0,1,1.73-2.82c.6-.68,1.21-1.33,1.85-1.94L69.13,68c-.64.61-1.26,1.26-1.85,1.94a7.28,7.28,0,0,0-1.73,2.82,2.54,2.54,0,0,0-.19,1.09,2.33,2.33,0,0,0,1,1.7c.31.21.6.43.86.64a5.54,5.54,0,0,0,1,.65,5.48,5.48,0,0,1,1.23.86l-.51.88a11.17,11.17,0,0,0-1,1.9.61.61,0,0,0,0,.12,9.59,9.59,0,0,1-.71,1.34,13.6,13.6,0,0,0-1.9,4.5h0a5.06,5.06,0,0,1-.49.41,5,5,0,0,0-.68.54l-3.41,3.29a4.48,4.48,0,0,1,.68-.54c.17-.13.33-.27.49-.41l.27,0,.12,0c-.16.15-.34.3-.53.45-.5.38-1.5,1.29-3,2.75l-.56.54a5.39,5.39,0,0,0-1.79,1.16l-.2.19a3.45,3.45,0,0,1-1.75,1.07l-.27,0a2.24,2.24,0,0,0-1.14.55,6.57,6.57,0,0,1-2.14,1,3,3,0,0,1-.86.15,7,7,0,0,1-2.56-.48c-.32-.13-.49-.25-.5-.37a.7.7,0,0,1,0-.16c0-.27-.54-.37-1.64-.39a2,2,0,0,1,.58-1.29q2.25-2.25,5.94-6.17,5.56-5.86,5.54-6.26c0-.24-.62-.34-1.82-.3a8.75,8.75,0,0,1-1.3-.07L50.41,80.4a3.67,3.67,0,0,0-1-.35l-.25,0s0,0,0,0l-3.42,3.29,0,0,.26,0a3.55,3.55,0,0,1,1,.35l3.83,1.68a8.57,8.57,0,0,0,1.3.07c1.2,0,1.81.06,1.82.3S52.11,88.09,48.4,92q-3.69,3.93-5.94,6.18a2,2,0,0,0-.59,1.29c1.11,0,1.66.12,1.65.39a.27.27,0,0,0,0,.16c0,.12.17.24.5.37a6.91,6.91,0,0,0,2.56.48,3.17,3.17,0,0,0,.86-.15,6.57,6.57,0,0,0,2.14-1,2.24,2.24,0,0,1,1.14-.55l.27,0A3.59,3.59,0,0,0,52.77,98l.25-.24a5.26,5.26,0,0,1,1.69-1.06l1.06-1c1.24-1.18,2.08-1.94,2.52-2.27a7.29,7.29,0,0,0,.65-.56l3.3-3.18a1.28,1.28,0,0,0,.66-.36l2.23-2.15c-.07.44-.12.88-.16,1.33v.42q.14,2.53,3.54,4.06A22,22,0,0,0,73,94.67a10,10,0,0,0,5.83-.28,17.57,17.57,0,0,0,5.6-3.64l3.42-3.29A17.51,17.51,0,0,1,82.26,91.1Z" fill="#581a83"/><path d="M41.54,94.82a4,4,0,0,1-2,.83,2.77,2.77,0,0,1-1.13-.24,2.79,2.79,0,0,0-.69-.17,3.26,3.26,0,0,1-.65-.12,1.36,1.36,0,0,1-.56-.39.31.31,0,0,0-.28-.11l-.51,0a1.67,1.67,0,0,1-.47-.07c-.17,0-.28-.33-.31-.87A19.48,19.48,0,0,1,35.77,89q.9-3.48,3-10c.9-2.71,1.77-5.63,2.63-8.77a7.86,7.86,0,0,0,2.63.54.89.89,0,0,0,.47-.13l.12-.09,2.78-2.68L53.45,65a4.1,4.1,0,0,1,1.3-.44c.2,0,.3.09.32.29a4,4,0,0,1-.81,1.66,4.74,4.74,0,0,0-.57,1.1,2,2,0,0,1-.57,1.2l-4.88,6.74a1.2,1.2,0,0,1-.17.21l3.41-3.29a2,2,0,0,0,.18-.21l4.88-6.74a1.94,1.94,0,0,0,.56-1.2,5.85,5.85,0,0,1,.57-1.1,3.75,3.75,0,0,0,.81-1.66.27.27,0,0,0-.32-.29,4.18,4.18,0,0,0-1.3.44L50.3,64.79a5.12,5.12,0,0,0-1.34.9l-1.83,1.76a12,12,0,0,1-3.72-1.09,11.79,11.79,0,0,1-3.15-1.85.91.91,0,0,1-.21-.54c0-.48.4-1.15,1.29-2l-3.42,3.28c-.88.86-1.31,1.53-1.28,2a.91.91,0,0,0,.21.54A12.16,12.16,0,0,0,40,69.65l.25.1-1.56,1.5a.74.74,0,0,0-.17.32Q37,77.38,35.35,82.26q-2.09,6.52-3,10A18.92,18.92,0,0,0,31.53,97c0,.54.13.83.31.87a1.35,1.35,0,0,0,.47.06l.5,0a.29.29,0,0,1,.28.11,1.22,1.22,0,0,0,.57.38,2.68,2.68,0,0,0,.65.13,2.49,2.49,0,0,1,.69.17,2.73,2.73,0,0,0,1.12.24,4,4,0,0,0,2-.83A8.71,8.71,0,0,1,39,97.6l3.41-3.29A9.83,9.83,0,0,0,41.54,94.82Z" fill="#581a83"/></g><polygon points="170.02 108.84 171.89 123.82 180.94 115.09 170.02 108.84"/><path d="M167.17,57.52s-.07,0-.08,0l0,.06c-.05,0,0,0-.08,0s0-.07.06-.1-.09,0-.09.05,0-.06-.07-.06,0,.09-.09.08h0c-.11,0-.11.13-.21.11v0s-.08,0-.15,0,0,0,0,0-.1,0-.15,0l0,.06c-.2.08-1,.48-1.16.57h0c-.28.15-.87.4-1.17.6a2.79,2.79,0,0,1-.25-.42c-.1,0-.12-.12-.2-.15h0c-.07,0-.29-.44-.37-.5v0c-.09,0,0-.08,0-.15a.13.13,0,0,1-.16,0h0a1.13,1.13,0,0,1-.2-.09l0,0c-.07,0-.12-.11-.15-.13s-.06-.24-.18-.3l.06-.14h0a7.55,7.55,0,0,0-1.47,1.19l0,0,0,0s.06,0,0,0l0,0s0,0-.06,0a0,0,0,0,1,0,0s0,0,0,0,.07,0,.07,0-.05.05,0,.09a4,4,0,0,0,.37.6s0,0,0,0a1.92,1.92,0,0,0,.15.14.16.16,0,0,1,0,.07s.26.26.26.27l.06-.05c0,.06-.06.08,0,.12s.06.09.12.07,0,0,0,.05,0,0,.05,0l0,0,0,0s0,.05,0,0,0,0,0,.07a4.62,4.62,0,0,0-.44.19h0c-.07.09-.09,0-.17,0s0,.15,0,.17v0a1,1,0,0,1-.18.19v0c0,.08-.17.11-.21.14s-.3,0-.41.15l-.14-.07v0a6.29,6.29,0,0,0,.87,1.68v0l0,0s0-.06.06,0l-.06,0s0,0,0,.06h0s0,0,0,0,0-.07.06-.07,0,.07.09.05a5.77,5.77,0,0,0,.82-.31s0,0,0,0,.15-.08.21-.14a.1.1,0,0,1,.06,0s.39-.23.4-.22l0-.08c.08,0,.06.08.13,0s.12,0,.12-.11,0,0,.05,0,0,0,0-.06,0,0,0,0l.05,0s.05,0,0,.06l.22-.08a5,5,0,0,1,.48.61s-.07.06-.08.07.06,0,.09,0l-.05,0s0,0,0,0,.06-.06.09-.1l0,0,0,0s.12-.06.14,0,.12.16.17.25h-.07s0,0,0,0,.05,0,.06,0,.1.12.2.12,1.43-.94,1.53-1,0,0,0,0a0,0,0,0,0,0-.07l-.06,0s0,0,0-.07.07,0,.1,0,0-.08-.06,0,0,0,0-.08-.09,0-.08,0h0c0-.09-.14,0-.14-.13h0s-.05,0-.05-.11,0,0,0,0-.05-.07,0-.12h-.06a6.62,6.62,0,0,0-.46-.52c.11-.12.39-.3.42-.4l-.06,0,.05-.07s0,.19,0,.17a9.41,9.41,0,0,1,.93-.41c.07,0,0,.08,0,.09s0-.07.06-.08,0,0,0,.05,0,0,0,0-.06-.08-.09-.12l.07,0,0,0s0-.13.06-.13a3.42,3.42,0,0,0,.34-.13s0,0,0,.08a0,0,0,0,1,0,0s0-.05,0-.06.18-.09.22-.18-.49-1.65-.54-1.76S167.16,57.51,167.17,57.52Z" fill="#fff"/><path d="M128.43,70.46l.61,0-.15-3.35h-.66l-.08-1.36-31.5,1.68h0L62.92,69,63,70.38l-.4,0-.26,0,.23,3.35.61,0,0,1L66,74.62l.13,2.49L68.85,77,69,79.47l2.74-.13.14,2.5L87,81.12l-.13-2.5,2.74-.13L89.43,76l2.74-.14L92,73.37l2.74-.13-.1-3.78,1.95-.1L97,73.14,99.69,73l.15,2.5,2.74-.15.15,2.5,2.74-.15.14,2.49,15.08-.8-.14-2.49,2.74-.15-.14-2.49,2.74-.15-.15-2.49,2.75-.15Z"/><polygon points="116.1 74.34 118.7 74.21 118.83 76.58 116.22 76.7 116.1 74.34" fill="#fff"/><polygon points="118.57 71.85 121.18 71.72 121.3 74.09 118.7 74.21 118.57 71.85" fill="#fff"/><polygon points="121.05 69.36 123.65 69.23 123.78 71.6 121.18 71.72 121.05 69.36" fill="#fff"/><polygon points="110.89 74.59 113.49 74.46 113.62 76.83 111.02 76.95 110.89 74.59" fill="#fff"/><polygon points="113.37 72.1 115.97 71.97 116.1 74.34 113.49 74.46 113.37 72.1" fill="#fff"/><polygon points="115.84 69.61 118.45 69.48 118.57 71.85 115.97 71.97 115.84 69.61" fill="#fff"/><polygon points="81.92 76.44 84.52 76.31 84.65 78.68 82.04 78.8 81.92 76.44" fill="#fff"/><polygon points="84.39 73.95 87 73.83 87.12 76.19 84.52 76.31 84.39 73.95" fill="#fff"/><polygon points="86.87 71.46 89.47 71.33 89.6 73.7 87 73.83 86.87 71.46" fill="#fff"/><polygon points="76.71 76.69 79.31 76.56 79.44 78.93 76.84 79.05 76.71 76.69" fill="#fff"/><polygon points="79.19 74.2 81.79 74.07 81.92 76.44 79.31 76.56 79.19 74.2" fill="#fff"/><polygon points="81.66 71.71 84.27 71.58 84.39 73.95 81.79 74.07 81.66 71.71" fill="#fff"/></svg>